<svg width="8" height="10" viewBox="0 0 8 10" fill="none" xmlns="http://www.w3.org/2000/svg">
<path d="M5.80632 1.29412C5.70993 1.29412 5.62725 1.22536 5.60967 1.13059L5.43033 0.163531C5.41275 0.0687549 5.33007 0 5.23368 0H0.2C0.0895429 0 0 0.089543 0 0.2V9.8C0 9.91046 0.0895431 10 0.2 10H1C1.11046 10 1.2 9.91046 1.2 9.8V6.67059C1.2 6.56013 1.28954 6.47059 1.4 6.47059H4.39368C4.49007 6.47059 4.57275 6.53934 4.59033 6.63412L4.76967 7.60118C4.78725 7.69595 4.86993 7.76471 4.96632 7.76471H7.8C7.91046 7.76471 8 7.67516 8 7.56471V1.49412C8 1.38366 7.91046 1.29412 7.8 1.29412H5.80632Z" fill="#00A5D0"/>
</svg>
