<svg width="8" height="10" viewBox="0 0 8 10" fill="none" xmlns="http://www.w3.org/2000/svg">
<path d="M7 3.33333H6.5V2.38095C6.5 1.06667 5.38 0 4 0C2.62 0 1.5 1.06667 1.5 2.38095V3.33333H1C0.45 3.33333 0 3.7619 0 4.28571V9.04762C0 9.57143 0.45 10 1 10H7C7.55 10 8 9.57143 8 9.04762V4.28571C8 3.7619 7.55 3.33333 7 3.33333ZM4 7.61905C3.45 7.61905 3 7.19048 3 6.66667C3 6.14286 3.45 5.71429 4 5.71429C4.55 5.71429 5 6.14286 5 6.66667C5 7.19048 4.55 7.61905 4 7.61905ZM5.55 3.33333H2.45V2.38095C2.45 1.56667 3.145 0.904762 4 0.904762C4.855 0.904762 5.55 1.56667 5.55 2.38095V3.33333Z" fill="#00A5D0"/>
</svg>
